0
SECTION
2
ENTITIES
0
POINT
8
1
10
3764.824
20
2845.423
0
POINT
8
1
10
3778.428
20
2845.423
0
POINT
8
1
10
3780.524
20
2847.34
0
POINT
8
1
10
3795.293
20
2853.8
0
POINT
8
1
10
3781.654
20
2850.453
0
POINT
8
1
10
3799.039
20
2856.23
0
POINT
8
1
10
3789.301
20
2853.684
0
POINT
8
1
10
3784.596
20
2852.645
0
POINT
8
1
10
3793.866
20
2858.628
0
POINT
8
1
10
3788.845
20
2858.02
0
POINT
8
1
10
3799.283
20
2864.64
0
POINT
8
1
10
3795.059
20
2862.592
0
POINT
8
1
10
3794.916
20
2863.177
0
POINT
8
1
10
3784.585
20
2857.299
0
POINT
8
1
10
3780.976
20
2855.736
0
POINT
8
1
10
3791.97
20
2865.383
0
POINT
8
1
10
3795.959
20
2868.952
0
POINT
8
1
10
3785.322
20
2861.955
0
POINT
8
1
10
3786.324
20
2863.73
0
POINT
8
1
10
3787.793
20
2865.415
0
POINT
8
1
10
3793.011
20
2869.972
0
POINT
8
1
10
3792.979
20
2870.191
0
POINT
8
1
10
3790.221
20
2869.222
0
POINT
8
1
10
3780.326
20
2861.322
0
POINT
8
1
10
3776.468
20
2858.881
0
POINT
8
1
10
3781.747
20
2865.363
0
POINT
8
1
10
3785.879
20
2870.586
0
POINT
8
1
10
3775.82
20
2859.628
0
POINT
8
1
10
3776.541
20
2864.789
0
POINT
8
1
10
3779.115
20
2869.933
0
POINT
8
1
10
3768.382
20
2854.894
0
POINT
8
1
10
3768.634
20
2856.572
0
POINT
8
1
10
3770.445
20
2863.635
0
POINT
8
1
10
3768.128
20
2860.81
0
POINT
8
1
10
3769.646
20
2870.663
0
POINT
8
1
10
3765.924
20
2855.036
0
POINT
8
1
10
3765.204
20
2866.069
0
POINT
8
1
10
3764.334
20
2864.859
0
POINT
8
1
10
3762.297
20
2855.115
0
POINT
8
1
10
3758.577
20
2865.857
0
POINT
8
1
10
3757.805
20
2855.804
0
POINT
8
1
10
3751.04
20
2864.182
0
POINT
8
1
10
3750.342
20
2858.816
0
POINT
8
1
10
3750.621
20
2856.161
0
POINT
8
1
10
3744.891
20
2859.717
0
POINT
8
1
10
3748.804
20
2856.423
0
POINT
8
1
10
3744.116
20
2853.723
0
POINT
8
1
10
3748.429
20
2851.975
0
POINT
8
1
10
3749.893
20
2848.263
0
POINT
8
1
10
3757.095
20
2846.279
0
LINE
8
1
10
3764.824
20
2845.423
11
3757.095
21
2846.279
0
LINE
8
1
10
3757.095
20
2846.279
11
3749.893
21
2848.263
0
LINE
8
1
10
3749.893
20
2848.263
11
3744.116
21
2853.723
0
LINE
8
1
10
3744.116
20
2853.723
11
3744.891
21
2859.717
0
LINE
8
1
10
3744.891
20
2859.717
11
3751.04
21
2864.182
0
LINE
8
1
10
3751.04
20
2864.182
11
3769.646
21
2870.663
0
LINE
8
1
10
3769.646
20
2870.663
11
3785.879
21
2870.586
0
LINE
8
1
10
3785.879
20
2870.586
11
3792.979
21
2870.191
0
LINE
8
1
10
3792.979
20
2870.191
11
3795.959
21
2868.952
0
LINE
8
1
10
3795.959
20
2868.952
11
3799.283
21
2864.64
0
LINE
8
1
10
3799.283
20
2864.64
11
3799.039
21
2856.23
0
LINE
8
1
10
3799.039
20
2856.23
11
3795.293
21
2853.8
0
LINE
8
1
10
3795.293
20
2853.8
11
3778.428
21
2845.423
0
LINE
8
1
10
3778.428
20
2845.423
11
3764.824
21
2845.423
0
LINE
8
1
10
3744.116
20
2845.423
11
3744.116
21
2871.423
0
LINE
8
1
10
3745.116
20
2845.423
11
3745.116
21
2871.423
0
LINE
8
1
10
3746.116
20
2845.423
11
3746.116
21
2871.423
0
LINE
8
1
10
3747.116
20
2845.423
11
3747.116
21
2871.423
0
LINE
8
1
10
3748.116
20
2845.423
11
3748.116
21
2871.423
0
LINE
8
1
10
3749.116
20
2845.423
11
3749.116
21
2871.423
0
LINE
8
1
10
3750.116
20
2845.423
11
3750.116
21
2871.423
0
LINE
8
1
10
3751.116
20
2845.423
11
3751.116
21
2871.423
0
LINE
8
1
10
3752.116
20
2845.423
11
3752.116
21
2871.423
0
LINE
8
1
10
3753.116
20
2845.423
11
3753.116
21
2871.423
0
LINE
8
1
10
3754.116
20
2845.423
11
3754.116
21
2871.423
0
LINE
8
1
10
3755.116
20
2845.423
11
3755.116
21
2871.423
0
LINE
8
1
10
3756.116
20
2845.423
11
3756.116
21
2871.423
0
LINE
8
1
10
3757.116
20
2845.423
11
3757.116
21
2871.423
0
LINE
8
1
10
3758.116
20
2845.423
11
3758.116
21
2871.423
0
LINE
8
1
10
3759.116
20
2845.423
11
3759.116
21
2871.423
0
LINE
8
1
10
3760.116
20
2845.423
11
3760.116
21
2871.423
0
LINE
8
1
10
3761.116
20
2845.423
11
3761.116
21
2871.423
0
LINE
8
1
10
3762.116
20
2845.423
11
3762.116
21
2871.423
0
LINE
8
1
10
3763.116
20
2845.423
11
3763.116
21
2871.423
0
LINE
8
1
10
3764.116
20
2845.423
11
3764.116
21
2871.423
0
LINE
8
1
10
3765.116
20
2845.423
11
3765.116
21
2871.423
0
LINE
8
1
10
3766.116
20
2845.423
11
3766.116
21
2871.423
0
LINE
8
1
10
3767.116
20
2845.423
11
3767.116
21
2871.423
0
LINE
8
1
10
3768.116
20
2845.423
11
3768.116
21
2871.423
0
LINE
8
1
10
3769.116
20
2845.423
11
3769.116
21
2871.423
0
LINE
8
1
10
3770.116
20
2845.423
11
3770.116
21
2871.423
0
LINE
8
1
10
3771.116
20
2845.423
11
3771.116
21
2871.423
0
LINE
8
1
10
3772.116
20
2845.423
11
3772.116
21
2871.423
0
LINE
8
1
10
3773.116
20
2845.423
11
3773.116
21
2871.423
0
LINE
8
1
10
3774.116
20
2845.423
11
3774.116
21
2871.423
0
LINE
8
1
10
3775.116
20
2845.423
11
3775.116
21
2871.423
0
LINE
8
1
10
3776.116
20
2845.423
11
3776.116
21
2871.423
0
LINE
8
1
10
3777.116
20
2845.423
11
3777.116
21
2871.423
0
LINE
8
1
10
3778.116
20
2845.423
11
3778.116
21
2871.423
0
LINE
8
1
10
3779.116
20
2845.423
11
3779.116
21
2871.423
0
LINE
8
1
10
3780.116
20
2845.423
11
3780.116
21
2871.423
0
LINE
8
1
10
3781.116
20
2845.423
11
3781.116
21
2871.423
0
LINE
8
1
10
3782.116
20
2845.423
11
3782.116
21
2871.423
0
LINE
8
1
10
3783.116
20
2845.423
11
3783.116
21
2871.423
0
LINE
8
1
10
3784.116
20
2845.423
11
3784.116
21
2871.423
0
LINE
8
1
10
3785.116
20
2845.423
11
3785.116
21
2871.423
0
LINE
8
1
10
3786.116
20
2845.423
11
3786.116
21
2871.423
0
LINE
8
1
10
3787.116
20
2845.423
11
3787.116
21
2871.423
0
LINE
8
1
10
3788.116
20
2845.423
11
3788.116
21
2871.423
0
LINE
8
1
10
3789.116
20
2845.423
11
3789.116
21
2871.423
0
LINE
8
1
10
3790.116
20
2845.423
11
3790.116
21
2871.423
0
LINE
8
1
10
3791.116
20
2845.423
11
3791.116
21
2871.423
0
LINE
8
1
10
3792.116
20
2845.423
11
3792.116
21
2871.423
0
LINE
8
1
10
3793.116
20
2845.423
11
3793.116
21
2871.423
0
LINE
8
1
10
3794.116
20
2845.423
11
3794.116
21
2871.423
0
LINE
8
1
10
3795.116
20
2845.423
11
3795.116
21
2871.423
0
LINE
8
1
10
3796.116
20
2845.423
11
3796.116
21
2871.423
0
LINE
8
1
10
3797.116
20
2845.423
11
3797.116
21
2871.423
0
LINE
8
1
10
3798.116
20
2845.423
11
3798.116
21
2871.423
0
LINE
8
1
10
3799.116
20
2845.423
11
3799.116
21
2871.423
0
LINE
8
1
10
3800.116
20
2845.423
11
3800.116
21
2871.423
0
LINE
8
1
10
3744.116
20
2845.423
11
3800.116
21
2845.423
0
LINE
8
1
10
3744.116
20
2846.423
11
3800.116
21
2846.423
0
LINE
8
1
10
3744.116
20
2847.423
11
3800.116
21
2847.423
0
LINE
8
1
10
3744.116
20
2848.423
11
3800.116
21
2848.423
0
LINE
8
1
10
3744.116
20
2849.423
11
3800.116
21
2849.423
0
LINE
8
1
10
3744.116
20
2850.423
11
3800.116
21
2850.423
0
LINE
8
1
10
3744.116
20
2851.423
11
3800.116
21
2851.423
0
LINE
8
1
10
3744.116
20
2852.423
11
3800.116
21
2852.423
0
LINE
8
1
10
3744.116
20
2853.423
11
3800.116
21
2853.423
0
LINE
8
1
10
3744.116
20
2854.423
11
3800.116
21
2854.423
0
LINE
8
1
10
3744.116
20
2855.423
11
3800.116
21
2855.423
0
LINE
8
1
10
3744.116
20
2856.423
11
3800.116
21
2856.423
0
LINE
8
1
10
3744.116
20
2857.423
11
3800.116
21
2857.423
0
LINE
8
1
10
3744.116
20
2858.423
11
3800.116
21
2858.423
0
LINE
8
1
10
3744.116
20
2859.423
11
3800.116
21
2859.423
0
LINE
8
1
10
3744.116
20
2860.423
11
3800.116
21
2860.423
0
LINE
8
1
10
3744.116
20
2861.423
11
3800.116
21
2861.423
0
LINE
8
1
10
3744.116
20
2862.423
11
3800.116
21
2862.423
0
LINE
8
1
10
3744.116
20
2863.423
11
3800.116
21
2863.423
0
LINE
8
1
10
3744.116
20
2864.423
11
3800.116
21
2864.423
0
LINE
8
1
10
3744.116
20
2865.423
11
3800.116
21
2865.423
0
LINE
8
1
10
3744.116
20
2866.423
11
3800.116
21
2866.423
0
LINE
8
1
10
3744.116
20
2867.423
11
3800.116
21
2867.423
0
LINE
8
1
10
3744.116
20
2868.423
11
3800.116
21
2868.423
0
LINE
8
1
10
3744.116
20
2869.423
11
3800.116
21
2869.423
0
LINE
8
1
10
3744.116
20
2870.423
11
3800.116
21
2870.423
0
LINE
8
1
10
3744.116
20
2871.423
11
3800.116
21
2871.423
0
TEXT
8
0
10
3764.824
 20
2845.7075423
 30
0.0
 40
0.5
1
P30
7
等线
0
TEXT
8
0
10
3778.428
 20
2845.7075423
 30
0.0
 40
0.5
1
P28
7
等线
0
TEXT
8
0
10
3780.524
 20
2847.624734
 30
0.0
 40
0.5
1
P27
7
等线
0
TEXT
8
0
10
3795.293
 20
2854.08538
 30
0.0
 40
0.5
1
P05
7
等线
0
TEXT
8
0
10
3781.654
 20
2850.7380453
 30
0.0
 40
0.5
1
P26
7
等线
0
TEXT
8
0
10
3799.039
 20
2856.515623
 30
0.0
 40
0.5
1
P04
7
等线
0
TEXT
8
0
10
3789.301
 20
2853.9693684
 30
0.0
 40
0.5
1
P06
7
等线
0
TEXT
8
0
10
3784.596
 20
2852.9302645
 30
0.0
 40
0.5
1
P25
7
等线
0
TEXT
8
0
10
3793.866
 20
2858.9138628
 30
0.0
 40
0.5
1
P19
7
等线
0
TEXT
8
0
10
3788.845
 20
2858.305802
 30
0.0
 40
0.5
1
P18
7
等线
0
TEXT
8
0
10
3799.283
 20
2864.926464
 30
0.0
 40
0.5
1
P03
7
等线
0
TEXT
8
0
10
3795.059
 20
2862.8782592
 30
0.0
 40
0.5
1
P21
7
等线
0
TEXT
8
0
10
3794.916
 20
2863.4633177
 30
0.0
 40
0.5
1
P20
7
等线
0
TEXT
8
0
10
3784.585
 20
2857.5847299
 30
0.0
 40
0.5
1
P07
7
等线
0
TEXT
8
0
10
3780.976
 20
2856.0215736
 30
0.0
 40
0.5
1
P24
7
等线
0
TEXT
8
0
10
3791.97
 20
2865.6695383
 30
0.0
 40
0.5
1
P14
7
等线
0
TEXT
8
0
10
3795.959
 20
2869.2388952
 30
0.0
 40
0.5
1
P02
7
等线
0
TEXT
8
0
10
3785.322
 20
2862.2411955
 30
0.0
 40
0.5
1
P17
7
等线
0
TEXT
8
0
10
3786.324
 20
2864.016373
 30
0.0
 40
0.5
1
P22
7
等线
0
TEXT
8
0
10
3787.793
 20
2865.7015415
 30
0.0
 40
0.5
1
P15
7
等线
0
TEXT
8
0
10
3793.011
 20
2870.2589972
 30
0.0
 40
0.5
1
P01
7
等线
0
TEXT
8
0
10
3792.979
 20
2870.4780191
 30
0.0
 40
0.5
1
P12
7
等线
0
TEXT
8
0
10
3790.221
 20
2869.5089222
 30
0.0
 40
0.5
1
P13
7
等线
0
TEXT
8
0
10
3780.326
 20
2861.6081322
 30
0.0
 40
0.5
1
P08
7
等线
0
TEXT
8
0
10
3776.468
 20
2859.1668881
 30
0.0
 40
0.5
1
P23
7
等线
0
TEXT
8
0
10
3781.747
 20
2865.6495363
 30
0.0
 40
0.5
1
P16
7
等线
0
TEXT
8
0
10
3785.879
 20
2870.8730586
 30
0.0
 40
0.5
1
P11
7
等线
0
TEXT
8
0
10
3775.82
 20
2859.9139628
 30
0.0
 40
0.5
1
P39
7
等线
0
TEXT
8
0
10
3776.541
 20
2865.0754789
 30
0.0
 40
0.5
1
P09
7
等线
0
TEXT
8
0
10
3779.115
 20
2870.2199933
 30
0.0
 40
0.5
1
P10
7
等线
0
TEXT
8
0
10
3768.382
 20
2855.1794894
 30
0.0
 40
0.5
1
P43
7
等线
0
TEXT
8
0
10
3768.634
 20
2856.8576572
 30
0.0
 40
0.5
1
P42
7
等线
0
TEXT
8
0
10
3770.445
 20
2863.9213635
 30
0.0
 40
0.5
1
P38
7
等线
0
TEXT
8
0
10
3768.128
 20
2861.096081
 30
0.0
 40
0.5
1
P41
7
等线
0
TEXT
8
0
10
3769.646
 20
2870.9500663
 30
0.0
 40
0.5
1
P51
7
等线
0
TEXT
8
0
10
3765.924
 20
2855.3215036
 30
0.0
 40
0.5
1
P44
7
等线
0
TEXT
8
0
10
3765.204
 20
2866.3556069
 30
0.0
 40
0.5
1
P37
7
等线
0
TEXT
8
0
10
3764.334
 20
2865.1454859
 30
0.0
 40
0.5
1
P40
7
等线
0
TEXT
8
0
10
3762.297
 20
2855.4005115
 30
0.0
 40
0.5
1
P45
7
等线
0
TEXT
8
0
10
3758.577
 20
2866.1435857
 30
0.0
 40
0.5
1
P36
7
等线
0
TEXT
8
0
10
3757.805
 20
2856.0895804
 30
0.0
 40
0.5
1
P46
7
等线
0
TEXT
8
0
10
3751.04
 20
2864.4684182
 30
0.0
 40
0.5
1
P35
7
等线
0
TEXT
8
0
10
3750.342
 20
2859.1018816
 30
0.0
 40
0.5
1
P50
7
等线
0
TEXT
8
0
10
3750.621
 20
2856.4466161
 30
0.0
 40
0.5
1
P48
7
等线
0
TEXT
8
0
10
3744.891
 20
2860.0029717
 30
0.0
 40
0.5
1
P34
7
等线
0
TEXT
8
0
10
3748.804
 20
2856.7086423
 30
0.0
 40
0.5
1
P47
7
等线
0
TEXT
8
0
10
3744.116
 20
2854.0083723
 30
0.0
 40
0.5
1
P33
7
等线
0
TEXT
8
0
10
3748.429
 20
2852.2601975
 30
0.0
 40
0.5
1
P49
7
等线
0
TEXT
8
0
10
3749.893
 20
2848.5478263
 30
0.0
 40
0.5
1
P32
7
等线
0
TEXT
8
0
10
3757.095
 20
2846.5636279
 30
0.0
 40
0.5
1
P31
7
等线
0
ENDSEC
0
EOF
